<?xml version="1.0" standalone="no"?>
<!DOCTYPE svg PUBLIC "-//W3C//DTD SVG 20010904//EN"
 "http://www.w3.org/TR/2001/REC-SVG-20010904/DTD/svg10.dtd">
<svg version="1.0" xmlns="http://www.w3.org/2000/svg"
 width="512.000000pt" height="512.000000pt" viewBox="0 0 512.000000 512.000000"
 preserveAspectRatio="xMidYMid meet">
<metadata>
Created by potrace 1.14, written by Peter Selinger 2001-2017
</metadata>
<g transform="translate(0.000000,512.000000) scale(0.100000,-0.100000)"
fill="#000000" stroke="none">
<path d="M3395 3166 c-16 -8 -44 -29 -61 -47 -29 -32 -954 -1384 -954 -1394 0
-3 62 -5 138 -5 l138 0 80 118 c44 64 223 330 398 590 175 259 322 472 326
472 6 0 639 -949 648 -972 2 -4 -221 -8 -495 -8 l-498 -1 -69 -95 c-37 -52
-66 -97 -64 -100 3 -2 354 -3 780 -2 l776 3 -464 689 c-255 379 -474 700 -486
714 -46 49 -130 66 -193 38z"/>
<path d="M1283 3145 c-327 -59 -560 -266 -617 -547 -79 -388 160 -741 576
-850 78 -20 110 -22 538 -25 l455 -4 76 98 76 98 -476 6 c-439 6 -483 8 -566
28 -294 70 -455 245 -455 494 0 45 6 105 14 132 35 134 129 246 256 308 144
70 146 71 636 75 l442 3 76 100 76 99 -517 -1 c-378 -1 -537 -4 -590 -14z"/>
</g>
</svg>
